<?xml version="1.0" encoding="UTF-8" standalone="no"?>
<!DOCTYPE svg PUBLIC "-//W3C//DTD SVG 1.1//EN" "http://www.w3.org/Graphics/SVG/1.1/DTD/svg11.dtd">
<svg width="100%" height="100%" viewBox="0 0 621 621" version="1.1" xmlns="http://www.w3.org/2000/svg" xmlns:xlink="http://www.w3.org/1999/xlink" xml:space="preserve" xmlns:serif="http://www.serif.com/" style="fill-rule:evenodd;clip-rule:evenodd;stroke-linejoin:round;stroke-miterlimit:2;">
    <g transform="matrix(1,0,0,1,-7806.84,-589.437)">
        <g transform="matrix(0.213808,0,0,0.295517,7741.87,532.988)">
            <g transform="matrix(11.4099,0,0,10.6954,-22978.7,-3477.22)">
                <g transform="matrix(0.70702,0,0,0.545702,1134.57,-41.7837)">
                    <path d="M1588.8,924.792L1634.32,933.229C1613.17,1008.96 1543.61,1064.58 1461.17,1064.58C1361.96,1064.58 1281.42,984.032 1281.42,884.822C1281.42,879.139 1281.68,873.516 1282.2,867.967L1327.72,876.404C1327.55,879.188 1327.46,881.995 1327.46,884.822C1327.46,958.621 1387.37,1018.54 1461.17,1018.54C1521.05,1018.54 1571.79,979.092 1588.8,924.792ZM1333.54,844.853L1288.02,836.416C1309.18,760.687 1378.73,705.068 1461.17,705.068C1466.91,705.068 1472.59,705.337 1478.2,705.865L1469.76,751.38C1466.92,751.2 1464.06,751.108 1461.17,751.108C1401.29,751.108 1350.55,790.553 1333.54,844.853ZM1501.31,757.246L1509.75,711.718C1585.39,732.93 1640.93,802.442 1640.93,884.822C1640.93,890.506 1640.66,896.129 1640.14,901.678L1594.62,893.241C1594.8,890.457 1594.89,887.65 1594.89,884.822C1594.89,825.004 1555.52,774.308 1501.31,757.246Z" style="fill:rgb(19,35,41);"/>
                </g>
                <g transform="matrix(0.422166,0,0,0.325842,1550.79,152.754)">
                    <path d="M1461.17,705.068C1560.38,705.068 1640.93,785.613 1640.93,884.822C1640.93,984.032 1560.38,1064.58 1461.17,1064.58C1361.96,1064.58 1281.42,984.032 1281.42,884.822C1281.42,785.613 1361.96,705.068 1461.17,705.068ZM1564.95,865.536L1597.02,859.594C1585.15,795.378 1528.8,746.675 1461.17,746.675C1384.93,746.675 1323.02,808.577 1323.02,884.822C1323.02,961.068 1384.93,1022.97 1461.17,1022.97L1461.17,990.367C1402.92,990.367 1355.63,943.074 1355.63,884.822C1355.63,826.571 1402.92,779.278 1461.17,779.278C1512.84,779.278 1555.88,816.481 1564.95,865.536ZM1461.17,813.726C1421.93,813.726 1390.08,845.583 1390.08,884.822C1390.08,924.062 1421.93,955.919 1461.17,955.919C1500.41,955.919 1532.27,924.062 1532.27,884.822C1532.27,845.583 1500.41,813.726 1461.17,813.726Z" style="fill:rgb(79,157,104);"/>
                </g>
            </g>
        </g>
    </g>
</svg>
