<?xml version="1.0" encoding="UTF-8" standalone="no"?>
<!DOCTYPE svg PUBLIC "-//W3C//DTD SVG 1.1//EN" "http://www.w3.org/Graphics/SVG/1.1/DTD/svg11.dtd">
<svg width="100%" height="100%" viewBox="0 0 621 621" version="1.1" xmlns="http://www.w3.org/2000/svg" xmlns:xlink="http://www.w3.org/1999/xlink" xml:space="preserve" xmlns:serif="http://www.serif.com/" style="fill-rule:evenodd;clip-rule:evenodd;stroke-linejoin:round;stroke-miterlimit:2;">
    <g transform="matrix(1,0,0,1,-7701.68,-1642.6)">
        <g transform="matrix(0.213808,0,0,0.295517,7636.87,1586.54)">
            <g transform="matrix(8.0712,0,0,5.83953,-10039.5,-3927.59)">
                <path d="M1472.38,751.335C1469.02,751.056 1465.63,750.901 1462.2,750.875C1400.88,750.405 1348.82,791.295 1332.52,847.439L1287.31,839.059C1307.57,761.984 1377.78,705.068 1461.17,705.068C1467.79,705.068 1474.33,705.426 1480.76,706.125L1472.38,751.335ZM1506.94,710.958C1584.02,731.223 1640.93,801.429 1640.93,884.822C1640.93,891.439 1640.57,897.972 1639.87,904.404L1594.66,896.024C1594.94,892.666 1595.09,889.273 1595.12,885.849C1595.59,824.538 1554.7,772.477 1498.57,756.169L1506.94,710.958ZM1635.04,930.586C1614.78,1007.66 1544.57,1064.58 1461.17,1064.58C1361.96,1064.58 1281.42,984.032 1281.42,884.822C1281.42,878.206 1281.78,871.673 1282.47,865.241L1327.68,873.621C1327.4,876.979 1327.25,880.372 1327.22,883.796C1326.66,957.724 1386.22,1018.2 1460.15,1018.77C1521.46,1019.24 1573.52,978.35 1589.83,922.206L1635.04,930.586Z" style="fill:rgb(19,35,41);"/>
            </g>
        </g>
        <g transform="matrix(0.213808,0,0,0.295517,7636.87,1586.54)">
            <g transform="matrix(4.02909,0,0,2.91506,-8507.83,-27561.7)">
                <path d="M2531.29,10100.6C2416.55,10092.6 2325.83,9996.85 2325.83,9880.08C2325.83,9758.06 2424.9,9659 2546.92,9659C2668.94,9659 2768,9758.06 2768,9880.08C2768,9996.85 2677.28,10092.6 2562.55,10100.6L2562.55,10015.2C2557.42,10015.8 2552.2,10016.1 2546.92,10016.1C2471.84,10016.1 2410.88,9955.16 2410.88,9880.08C2410.88,9805 2471.84,9744.05 2546.92,9744.05C2607.97,9744.05 2659.69,9784.36 2676.88,9839.8L2627.91,9848.88C2615.37,9816.38 2583.82,9793.3 2546.92,9793.3C2499.02,9793.3 2460.13,9832.18 2460.13,9880.08C2460.13,9927.98 2499.02,9966.87 2546.92,9966.87C2594.82,9966.87 2633.7,9927.98 2633.7,9880.08C2633.7,9879.91 2633.7,9879.73 2633.7,9879.55L2713.97,9864.67C2706.18,9779.3 2634.3,9712.33 2546.92,9712.33C2454.33,9712.33 2379.17,9787.5 2379.17,9880.08C2379.17,9967.4 2446.02,10039.2 2531.29,10047.1L2531.29,10100.6Z" style="fill:rgb(19,35,41);"/>
            </g>
        </g>
    </g>
</svg>
